<mxfile host="app.diagrams.net" modified="2024-07-05T10:09:36.919Z" agent="Mozilla/5.0 (Windows NT 10.0; WOW64) AppleWebKit/537.36 (KHTML, like Gecko) Chrome/86.0.4240.198 Safari/537.36" etag="EpXQKs7A4UauGR5k1r9f" version="24.6.4" type="github">
  <diagram id="G27EACNqvtDlupd_PjtR" name="第 1 页">
    <mxGraphModel dx="1850" dy="519" grid="0" gridSize="10" guides="1" tooltips="1" connect="1" arrows="1" fold="1" page="0" pageScale="1" pageWidth="827" pageHeight="1169" math="0" shadow="0">
      <root>
        <mxCell id="0" />
        <mxCell id="1" parent="0" />
        <mxCell id="SYIA0KVICW_RAHKhKB8I-1" value="元素权限组表&lt;br&gt;sys_sec_role_permission_element" style="rounded=1;whiteSpace=wrap;html=1;" vertex="1" parent="1">
          <mxGeometry x="150" y="410" width="120" height="60" as="geometry" />
        </mxCell>
        <mxCell id="SYIA0KVICW_RAHKhKB8I-2" value="应用app对应的client信息&lt;br&gt;sys_sec_application_client_detail" style="rounded=1;whiteSpace=wrap;html=1;" vertex="1" parent="1">
          <mxGeometry x="-390" y="100" width="120" height="60" as="geometry" />
        </mxCell>
        <mxCell id="SYIA0KVICW_RAHKhKB8I-3" value="菜单权限组表&lt;br&gt;sys_sec_role_permission_menu" style="rounded=1;whiteSpace=wrap;html=1;" vertex="1" parent="1">
          <mxGeometry x="150" y="100" width="120" height="60" as="geometry" />
        </mxCell>
        <mxCell id="SYIA0KVICW_RAHKhKB8I-4" value="权限元素表&lt;br&gt;sys_sec_element" style="rounded=1;whiteSpace=wrap;html=1;" vertex="1" parent="1">
          <mxGeometry x="150" y="320" width="120" height="60" as="geometry" />
        </mxCell>
        <mxCell id="SYIA0KVICW_RAHKhKB8I-5" value="机构表&lt;br&gt;sys_sec_organization" style="rounded=1;whiteSpace=wrap;html=1;" vertex="1" parent="1">
          <mxGeometry x="-180" y="490" width="120" height="60" as="geometry" />
        </mxCell>
        <mxCell id="SYIA0KVICW_RAHKhKB8I-6" value="权限菜单表&lt;br&gt;sys_sec_menu" style="rounded=1;whiteSpace=wrap;html=1;" vertex="1" parent="1">
          <mxGeometry x="150" y="190" width="120" height="60" as="geometry" />
        </mxCell>
        <mxCell id="SYIA0KVICW_RAHKhKB8I-7" value="用户的账号表&lt;br&gt;sys_sec_user_account" style="rounded=1;whiteSpace=wrap;html=1;" vertex="1" parent="1">
          <mxGeometry x="-180" y="190" width="120" height="60" as="geometry" />
        </mxCell>
        <mxCell id="SYIA0KVICW_RAHKhKB8I-8" value="用户的授权应用表&lt;br&gt;sys_sec_user_app" style="rounded=1;whiteSpace=wrap;html=1;" vertex="1" parent="1">
          <mxGeometry x="-390" y="190" width="120" height="60" as="geometry" />
        </mxCell>
        <mxCell id="SYIA0KVICW_RAHKhKB8I-9" value="应用app&lt;br&gt;sys_sec_application" style="rounded=1;whiteSpace=wrap;html=1;" vertex="1" parent="1">
          <mxGeometry x="-180" y="100" width="120" height="60" as="geometry" />
        </mxCell>
        <mxCell id="SYIA0KVICW_RAHKhKB8I-14" value="" style="endArrow=none;html=1;rounded=0;exitX=0;exitY=0.5;exitDx=0;exitDy=0;entryX=1;entryY=0.5;entryDx=0;entryDy=0;" edge="1" parent="1" source="SYIA0KVICW_RAHKhKB8I-9" target="SYIA0KVICW_RAHKhKB8I-2">
          <mxGeometry width="50" height="50" relative="1" as="geometry">
            <mxPoint x="-230" y="160" as="sourcePoint" />
            <mxPoint x="-180" y="110" as="targetPoint" />
          </mxGeometry>
        </mxCell>
        <mxCell id="SYIA0KVICW_RAHKhKB8I-15" value="1" style="edgeLabel;html=1;align=center;verticalAlign=middle;resizable=0;points=[];" vertex="1" connectable="0" parent="SYIA0KVICW_RAHKhKB8I-14">
          <mxGeometry x="-0.1829" y="-1" relative="1" as="geometry">
            <mxPoint as="offset" />
          </mxGeometry>
        </mxCell>
        <mxCell id="SYIA0KVICW_RAHKhKB8I-17" value="" style="endArrow=none;html=1;rounded=0;entryX=0.5;entryY=0;entryDx=0;entryDy=0;exitX=0.5;exitY=1;exitDx=0;exitDy=0;" edge="1" parent="1" source="SYIA0KVICW_RAHKhKB8I-25" target="SYIA0KVICW_RAHKhKB8I-24">
          <mxGeometry width="50" height="50" relative="1" as="geometry">
            <mxPoint x="-230" y="360" as="sourcePoint" />
            <mxPoint x="-180" y="310" as="targetPoint" />
          </mxGeometry>
        </mxCell>
        <mxCell id="SYIA0KVICW_RAHKhKB8I-43" value="1" style="edgeLabel;html=1;align=center;verticalAlign=middle;resizable=0;points=[];" vertex="1" connectable="0" parent="SYIA0KVICW_RAHKhKB8I-17">
          <mxGeometry x="0.0933" relative="1" as="geometry">
            <mxPoint as="offset" />
          </mxGeometry>
        </mxCell>
        <mxCell id="SYIA0KVICW_RAHKhKB8I-18" value="" style="endArrow=none;html=1;rounded=0;exitX=0;exitY=0.5;exitDx=0;exitDy=0;" edge="1" parent="1" source="SYIA0KVICW_RAHKhKB8I-7">
          <mxGeometry width="50" height="50" relative="1" as="geometry">
            <mxPoint x="-240" y="250" as="sourcePoint" />
            <mxPoint x="-270" y="220" as="targetPoint" />
          </mxGeometry>
        </mxCell>
        <mxCell id="SYIA0KVICW_RAHKhKB8I-19" value="1" style="edgeLabel;html=1;align=center;verticalAlign=middle;resizable=0;points=[];" vertex="1" connectable="0" parent="SYIA0KVICW_RAHKhKB8I-18">
          <mxGeometry x="-0.0114" relative="1" as="geometry">
            <mxPoint as="offset" />
          </mxGeometry>
        </mxCell>
        <mxCell id="SYIA0KVICW_RAHKhKB8I-24" value="机构角色关系表&lt;br&gt;sys_sec_organization_role" style="rhombus;whiteSpace=wrap;html=1;" vertex="1" parent="1">
          <mxGeometry x="-185" y="390" width="130" height="80" as="geometry" />
        </mxCell>
        <mxCell id="SYIA0KVICW_RAHKhKB8I-25" value="用户的角色关系表&lt;br&gt;sys_sec_user_role" style="rounded=1;whiteSpace=wrap;html=1;" vertex="1" parent="1">
          <mxGeometry x="-180" y="300" width="120" height="60" as="geometry" />
        </mxCell>
        <mxCell id="SYIA0KVICW_RAHKhKB8I-26" value="" style="endArrow=none;html=1;rounded=0;entryX=0.5;entryY=1;entryDx=0;entryDy=0;exitX=0.5;exitY=0;exitDx=0;exitDy=0;" edge="1" parent="1" source="SYIA0KVICW_RAHKhKB8I-25" target="SYIA0KVICW_RAHKhKB8I-7">
          <mxGeometry width="50" height="50" relative="1" as="geometry">
            <mxPoint x="-325" y="310" as="sourcePoint" />
            <mxPoint x="-275" y="260" as="targetPoint" />
          </mxGeometry>
        </mxCell>
        <mxCell id="SYIA0KVICW_RAHKhKB8I-27" value="n" style="edgeLabel;html=1;align=center;verticalAlign=middle;resizable=0;points=[];" vertex="1" connectable="0" parent="SYIA0KVICW_RAHKhKB8I-26">
          <mxGeometry x="0.18" y="-1" relative="1" as="geometry">
            <mxPoint as="offset" />
          </mxGeometry>
        </mxCell>
        <mxCell id="SYIA0KVICW_RAHKhKB8I-28" value="" style="endArrow=none;html=1;rounded=0;entryX=0.5;entryY=1;entryDx=0;entryDy=0;exitX=0.5;exitY=0;exitDx=0;exitDy=0;" edge="1" parent="1" source="SYIA0KVICW_RAHKhKB8I-5" target="SYIA0KVICW_RAHKhKB8I-24">
          <mxGeometry width="50" height="50" relative="1" as="geometry">
            <mxPoint x="-135" y="430" as="sourcePoint" />
            <mxPoint x="-85" y="380" as="targetPoint" />
          </mxGeometry>
        </mxCell>
        <mxCell id="SYIA0KVICW_RAHKhKB8I-42" value="n" style="edgeLabel;html=1;align=center;verticalAlign=middle;resizable=0;points=[];" vertex="1" connectable="0" parent="SYIA0KVICW_RAHKhKB8I-28">
          <mxGeometry x="0.0533" y="1" relative="1" as="geometry">
            <mxPoint as="offset" />
          </mxGeometry>
        </mxCell>
        <mxCell id="SYIA0KVICW_RAHKhKB8I-29" value="" style="endArrow=none;html=1;rounded=0;entryX=0;entryY=0.5;entryDx=0;entryDy=0;" edge="1" parent="1" target="SYIA0KVICW_RAHKhKB8I-6">
          <mxGeometry width="50" height="50" relative="1" as="geometry">
            <mxPoint x="-60" y="530" as="sourcePoint" />
            <mxPoint x="-10" y="480" as="targetPoint" />
          </mxGeometry>
        </mxCell>
        <mxCell id="SYIA0KVICW_RAHKhKB8I-49" value="n&lt;div&gt;&lt;br&gt;&lt;/div&gt;" style="edgeLabel;html=1;align=center;verticalAlign=middle;resizable=0;points=[];" vertex="1" connectable="0" parent="SYIA0KVICW_RAHKhKB8I-29">
          <mxGeometry x="0.0452" y="-4" relative="1" as="geometry">
            <mxPoint as="offset" />
          </mxGeometry>
        </mxCell>
        <mxCell id="SYIA0KVICW_RAHKhKB8I-35" value="" style="endArrow=none;html=1;rounded=0;entryX=0.5;entryY=1;entryDx=0;entryDy=0;exitX=0.5;exitY=0;exitDx=0;exitDy=0;" edge="1" parent="1" source="SYIA0KVICW_RAHKhKB8I-6" target="SYIA0KVICW_RAHKhKB8I-3">
          <mxGeometry width="50" height="50" relative="1" as="geometry">
            <mxPoint x="185" y="200" as="sourcePoint" />
            <mxPoint x="235" y="150" as="targetPoint" />
          </mxGeometry>
        </mxCell>
        <mxCell id="SYIA0KVICW_RAHKhKB8I-38" value="1" style="edgeLabel;html=1;align=center;verticalAlign=middle;resizable=0;points=[];" vertex="1" connectable="0" parent="SYIA0KVICW_RAHKhKB8I-35">
          <mxGeometry x="-0.0933" y="-2" relative="1" as="geometry">
            <mxPoint as="offset" />
          </mxGeometry>
        </mxCell>
        <mxCell id="SYIA0KVICW_RAHKhKB8I-36" value="" style="endArrow=none;html=1;rounded=0;exitX=0.5;exitY=0;exitDx=0;exitDy=0;entryX=0.5;entryY=1;entryDx=0;entryDy=0;" edge="1" parent="1" source="SYIA0KVICW_RAHKhKB8I-1" target="SYIA0KVICW_RAHKhKB8I-4">
          <mxGeometry width="50" height="50" relative="1" as="geometry">
            <mxPoint x="160" y="440" as="sourcePoint" />
            <mxPoint x="210" y="390" as="targetPoint" />
          </mxGeometry>
        </mxCell>
        <mxCell id="SYIA0KVICW_RAHKhKB8I-37" value="1" style="edgeLabel;html=1;align=center;verticalAlign=middle;resizable=0;points=[];" vertex="1" connectable="0" parent="SYIA0KVICW_RAHKhKB8I-36">
          <mxGeometry x="-0.0933" relative="1" as="geometry">
            <mxPoint as="offset" />
          </mxGeometry>
        </mxCell>
        <mxCell id="SYIA0KVICW_RAHKhKB8I-39" value="" style="endArrow=none;html=1;rounded=0;entryX=0;entryY=0.5;entryDx=0;entryDy=0;" edge="1" parent="1" target="SYIA0KVICW_RAHKhKB8I-6">
          <mxGeometry width="50" height="50" relative="1" as="geometry">
            <mxPoint x="-60" y="140" as="sourcePoint" />
            <mxPoint x="-10" y="90" as="targetPoint" />
          </mxGeometry>
        </mxCell>
        <mxCell id="SYIA0KVICW_RAHKhKB8I-47" value="n" style="edgeLabel;html=1;align=center;verticalAlign=middle;resizable=0;points=[];" vertex="1" connectable="0" parent="SYIA0KVICW_RAHKhKB8I-39">
          <mxGeometry x="-0.0109" relative="1" as="geometry">
            <mxPoint as="offset" />
          </mxGeometry>
        </mxCell>
        <mxCell id="SYIA0KVICW_RAHKhKB8I-40" value="" style="endArrow=none;html=1;rounded=0;entryX=0.5;entryY=1;entryDx=0;entryDy=0;exitX=0.5;exitY=0;exitDx=0;exitDy=0;" edge="1" parent="1" source="SYIA0KVICW_RAHKhKB8I-4" target="SYIA0KVICW_RAHKhKB8I-6">
          <mxGeometry width="50" height="50" relative="1" as="geometry">
            <mxPoint x="170" y="290" as="sourcePoint" />
            <mxPoint x="220" y="240" as="targetPoint" />
          </mxGeometry>
        </mxCell>
        <mxCell id="SYIA0KVICW_RAHKhKB8I-41" value="n" style="edgeLabel;html=1;align=center;verticalAlign=middle;resizable=0;points=[];" vertex="1" connectable="0" parent="SYIA0KVICW_RAHKhKB8I-40">
          <mxGeometry x="-0.0311" y="1" relative="1" as="geometry">
            <mxPoint as="offset" />
          </mxGeometry>
        </mxCell>
        <mxCell id="SYIA0KVICW_RAHKhKB8I-44" value="" style="endArrow=none;html=1;rounded=0;entryX=0;entryY=0.633;entryDx=0;entryDy=0;entryPerimeter=0;" edge="1" parent="1" target="SYIA0KVICW_RAHKhKB8I-3">
          <mxGeometry width="50" height="50" relative="1" as="geometry">
            <mxPoint x="-60" y="330" as="sourcePoint" />
            <mxPoint x="-10" y="280" as="targetPoint" />
          </mxGeometry>
        </mxCell>
        <mxCell id="SYIA0KVICW_RAHKhKB8I-50" value="n" style="edgeLabel;html=1;align=center;verticalAlign=middle;resizable=0;points=[];" vertex="1" connectable="0" parent="SYIA0KVICW_RAHKhKB8I-44">
          <mxGeometry x="-0.0355" y="-1" relative="1" as="geometry">
            <mxPoint as="offset" />
          </mxGeometry>
        </mxCell>
        <mxCell id="SYIA0KVICW_RAHKhKB8I-45" value="" style="endArrow=none;html=1;rounded=0;entryX=0;entryY=0.5;entryDx=0;entryDy=0;" edge="1" parent="1" target="SYIA0KVICW_RAHKhKB8I-1">
          <mxGeometry width="50" height="50" relative="1" as="geometry">
            <mxPoint x="-60" y="330" as="sourcePoint" />
            <mxPoint x="-10" y="280" as="targetPoint" />
          </mxGeometry>
        </mxCell>
        <mxCell id="SYIA0KVICW_RAHKhKB8I-52" value="n" style="edgeLabel;html=1;align=center;verticalAlign=middle;resizable=0;points=[];" vertex="1" connectable="0" parent="SYIA0KVICW_RAHKhKB8I-45">
          <mxGeometry x="0.4613" y="-1" relative="1" as="geometry">
            <mxPoint as="offset" />
          </mxGeometry>
        </mxCell>
      </root>
    </mxGraphModel>
  </diagram>
</mxfile>
